<?xml version="1.0" encoding="utf-8"?>
<!-- Generator: Adobe Illustrator 24.1.0, SVG Export Plug-In . SVG Version: 6.00 Build 0)  -->
<svg version="1.1" id="Laag_1" xmlns="http://www.w3.org/2000/svg" xmlns:xlink="http://www.w3.org/1999/xlink" x="0px" y="0px"
	 viewBox="0 0 1275 275" style="enable-background:new 0 0 1275 275;" xml:space="preserve">
<style type="text/css">
	.st0{clip-path:url(#SVGID_2_);}
	.st1{fill:#E33723;}
	.st2{fill:#7F1F15;}
	.st3{fill:#ED4841;}
	.st4{fill:#AA291B;}
	.st5{fill:#9F201B;}
	.st6{fill:#801E0F;}
	.st7{fill:#AC2712;}
</style>
<g>
	<defs>
		<rect id="SVGID_1_" x="-4.6" y="-524.7" width="1280" height="800"/>
	</defs>
	<clipPath id="SVGID_2_">
		<use xlink:href="#SVGID_1_"  style="overflow:visible;"/>
	</clipPath>
	<g class="st0">
		<g id="Desktop_night_versie">
			<ellipse id="Ellipse_2" class="st1" cx="626.4" cy="246.8" rx="734" ry="196.5"/>
			<path id="Path_4" class="st2" d="M279.1,200.2h61.3c0,0,20.8,0,8.6,13.1c-23,11.2-57.2,21-57.2,21s-38.9,10.8-42.9-14.6
				S279.1,200.2,279.1,200.2z"/>
			<path id="Path_3" class="st2" d="M-4.2,203.7l50.1-17.5c0,0,4,19.4-10.8,24.8c-6.5,2.3-12.4,6-17.4,10.8
				c-4.9,4.8-8.6,10.8-10.6,17.4c-3.7,12.2-11.4,12.3-11.4,12.3L-4.2,203.7z"/>
			
				<ellipse id="Ellipse_3" transform="matrix(0.9659 -0.2589 0.2589 0.9659 -39.4827 49.7951)" class="st3" cx="169.3" cy="174.8" rx="40.2" ry="15.6"/>
			<path id="Path_5" class="st4" d="M301.5,116.3c27.8-3.8,44.8-11.1,54.6-16.9s37.5-4.8,44.8-2s19.7,4.7,35.7,7.3s25.3,16.5-2,26.5
				c-26.8,4.5-39.8,4.7-53.1,12.2s-29.8,7.9-46.5,0s-32.5-11.8-43.8-10.1C263.5,135.6,267.4,114.1,301.5,116.3z"/>
			<path id="Path_7" class="st2" d="M211.7,62.3c4.4-7.5,5.7-19.5,17.5-30.1c5.7-10.8,10.1-20.4,10.1-20.4l23.8-5.9
				c0,0,22.2,17.9,33.5,19.8s24.4,21.5,24.4,21.5s17.6,18.3,23.2,18.3s-62.2,4.4-110.9,18"/>
			<path id="Path_6" class="st5" d="M120.5,106.1l56.2-12.2c4.8-1,33.4-6.9,58.2-9.8C222.6,70,214.1,51.3,173,64
				c-24.5,5.9-32.1,4.2-44.8,23.3C121.6,101.6,120.5,106.1,120.5,106.1z"/>
			<ellipse id="Ellipse_4" class="st5" cx="452.4" cy="179.3" rx="24" ry="9"/>
			<ellipse id="Ellipse_5" class="st6" cx="136.4" cy="140.3" rx="24" ry="9"/>
			<path id="Path_11" class="st3" d="M1181.3,173.3c-27.8-3.8-44.8-11.1-54.6-16.9s-37.5-4.8-44.8-2s-19.7,4.7-35.7,7.3
				s-25.3,16.5,2,26.5c26.8,4.5,39.8,4.7,53.1,12.2s29.8,7.9,46.5,0s32.6-11.8,43.8-10.1C1219.3,192.6,1215.4,171.1,1181.3,173.3z"
				/>
			<path id="Path_12" class="st4" d="M791.1,119.4h61.3c0,0,20.8,0,8.6-13.1c-23-11.2-57.2-21-57.2-21s-38.9-10.7-42.9,14.7
				S791.1,119.4,791.1,119.4z"/>
			
				<ellipse id="Ellipse_6" transform="matrix(0.2589 -0.9659 0.9659 0.2589 334.462 634.0969)" class="st3" cx="580.5" cy="99.1" rx="15.6" ry="40.2"/>
			<path id="Path_13" class="st2" d="M834.5,225.3c27.8,3.8,44.8,11.1,54.6,16.9s37.5,4.8,44.8,2s19.7-4.7,35.7-7.3
				s25.3-16.5-2-26.5c-26.8-4.5-39.8-4.7-53.1-12.2s-29.8-7.9-46.5,0s-32.5,11.8-43.8,10.1C796.5,206,800.4,227.6,834.5,225.3z"/>
			<ellipse id="Ellipse_7" class="st5" cx="950.4" cy="152.4" rx="24" ry="9"/>
			<ellipse id="Ellipse_8" class="st6" cx="598.9" cy="231.9" rx="36.5" ry="13.5"/>
			<ellipse id="Ellipse_9" class="st5" cx="703.4" cy="158.4" rx="24" ry="9"/>
			<ellipse id="Ellipse_10" class="st6" cx="1252.9" cy="231.9" rx="36.5" ry="13.5"/>
			<path id="Path_9" class="st6" d="M969.3,79.4c-10.1-22.8,26.1-18.1,47.7-31.8c14.6-33.8,50-30.1,50-30.1s34.5,15.8,63.4,38.9
				c15.3,16.2,28.6,36.5,28.6,36.5l-8.4,20.7"/>
			<path id="Path_8" class="st7" d="M931.2,24.6c7.3-4.4,26.8-6.6,29.3-5.2s12.6,8.5,26.3,19.4c9.3,20.7,16.4,28.9,26.9,48.5
				C980,80,888.9,70.9,888.9,70.9S921,35.2,931.2,24.6z"/>
			<path id="Path_10" class="st4" d="M1089.7,102.5l31.7-25.1l52.2,15.6c0,0-5.3,10.4,16.9,14.3s33.7,9.7,37.8,27.7"/>
		</g>
	</g>
</g>
</svg>
