<svg id="Laag_1" data-name="Laag 1" xmlns="http://www.w3.org/2000/svg" xmlns:xlink="http://www.w3.org/1999/xlink" viewBox="0 0 1275 275"><defs><style>.cls-1{fill:none;}.cls-2{clip-path:url(#clip-path);}.cls-3{fill:#aa432c;}.cls-4{fill:#7f1f15;}.cls-5{fill:#ce624c;}.cls-6{fill:#a33f2c;}.cls-7{fill:#95301c;}.cls-8{fill:#a13e2e;}.cls-9{fill:#912c1d;}.cls-10{fill:#801e0f;}</style><clipPath id="clip-path"><rect class="cls-1" x="-3" y="-524.63" width="1280" height="800"/></clipPath></defs><g class="cls-2"><g id="Desktop_day_versie" data-name="Desktop day versie"><ellipse id="Ellipse_2" data-name="Ellipse 2" class="cls-3" cx="628" cy="246.87" rx="734" ry="196.5"/><path id="Path_4" data-name="Path 4" class="cls-4" d="M280.68,200.29H342s20.84,0,8.59,13.11c-23,11.16-57.24,21-57.24,21s-38.87,10.75-42.85-14.6S280.68,200.29,280.68,200.29Z"/><ellipse id="Ellipse_3" data-name="Ellipse 3" class="cls-5" cx="170.02" cy="174.37" rx="40" ry="15.5" transform="matrix(0.97, -0.26, 0.26, 0.97, -39.36, 49.98)"/><path id="Path_5" data-name="Path 5" class="cls-6" d="M303.08,116.4c27.81-3.77,44.75-11.13,54.63-16.93s37.46-4.82,44.8-2,19.67,4.7,35.65,7.27,25.3,16.52-2,26.49c-26.83,4.46-39.8,4.7-53.1,12.23s-29.81,7.89-46.46,0-32.56-11.79-43.8-10.11C265.12,135.75,269,114.17,303.08,116.4Z"/><path id="Path_7" data-name="Path 7" class="cls-7" d="M213.3,63.43c4.39-7.54,5.75-19.5,17.53-30.15,5.68-10.79,10.11-20.4,10.11-20.4L264.75,7S287,24.83,298.29,26.78s24.37,21.51,24.37,21.51,17.57,18.35,23.24,18.35S283.71,71,235,84.69"/><path id="Path_6" data-name="Path 6" class="cls-8" d="M122.11,106.24,178.36,94c4.82-1,33.35-6.91,58.19-9.84-12.37-14.08-20.88-32.77-62-20-24.49,5.86-32,4.2-44.83,23.34C123.18,101.7,122.11,106.24,122.11,106.24Z"/><ellipse id="Ellipse_4" data-name="Ellipse 4" class="cls-9" cx="454" cy="179.37" rx="24" ry="9"/><path id="Path_9" data-name="Path 9" class="cls-4" d="M970.86,79.52c-10.08-22.8,26.09-18.13,47.67-31.8,14.69-33.76,50-30.13,50-30.13s34.49,15.76,63.46,38.94c15.33,16.17,28.57,36.5,28.57,36.5l-8.44,20.69"/><path id="Path_8" data-name="Path 8" class="cls-8" d="M932.79,24.77c7.26-4.39,26.77-6.64,29.31-5.19S974.7,28.05,988.42,39c9.33,20.74,16.36,28.94,26.89,48.52C981.61,80.11,890.46,71,890.46,71S922.58,35.3,932.79,24.77Z"/><path id="Path_10" data-name="Path 10" class="cls-8" d="M1091.27,102.61l31.66-25.13L1175.12,93s-5.25,10.42,16.87,14.28,33.72,9.74,37.78,27.7"/><ellipse id="Ellipse_5" data-name="Ellipse 5" class="cls-10" cx="138" cy="140.37" rx="24" ry="9"/><path id="Path_11" data-name="Path 11" class="cls-5" d="M1182.91,173.4c-27.81-3.77-44.75-11.13-54.63-16.93s-37.45-4.82-44.8-2-19.67,4.7-35.65,7.27-25.3,16.52,2,26.49c26.84,4.46,39.81,4.7,53.1,12.23s29.82,7.89,46.46,0,32.56-11.79,43.81-10.11C1220.87,192.75,1217,171.17,1182.91,173.4Z"/><path id="Path_12" data-name="Path 12" class="cls-6" d="M792.68,119.57H854s20.84,0,8.59-13.11c-23-11.16-57.24-21-57.24-21s-38.87-10.75-42.85,14.6S792.68,119.57,792.68,119.57Z"/><ellipse id="Ellipse_6" data-name="Ellipse 6" class="cls-5" cx="581.01" cy="101.49" rx="15.5" ry="40" transform="matrix(0.26, -0.97, 0.97, 0.26, 332.52, 636.4)"/><path id="Path_13" data-name="Path 13" class="cls-4" d="M836.08,225.46c27.81,3.77,44.75,11.13,54.63,16.92s37.46,4.83,44.8,2,19.68-4.7,35.65-7.28,25.3-16.52-2-26.48c-26.83-4.47-39.8-4.7-53.1-12.24s-29.81-7.88-46.46,0-32.56,11.79-43.8,10.12C798.12,206.11,802,227.69,836.08,225.46Z"/><ellipse id="Ellipse_7" data-name="Ellipse 7" class="cls-9" cx="952" cy="152.48" rx="24" ry="9"/><ellipse id="Ellipse_8" data-name="Ellipse 8" class="cls-10" cx="600.5" cy="231.98" rx="36.5" ry="13.5"/><ellipse id="Ellipse_9" data-name="Ellipse 9" class="cls-9" cx="705" cy="158.48" rx="24" ry="9"/><ellipse id="Ellipse_10" data-name="Ellipse 10" class="cls-10" cx="1254.5" cy="231.98" rx="36.5" ry="13.5"/><path id="Path_3" data-name="Path 3" class="cls-4" d="M-2.6,203.83l50.08-17.46s4,19.4-10.77,24.81A48.93,48.93,0,0,0,19.35,222,40.56,40.56,0,0,0,8.78,239.36C5.06,251.58-2.6,251.66-2.6,251.66Z"/></g></g></svg>